<?xml version="1.0" standalone="no"?>
<!DOCTYPE svg PUBLIC "-//W3C//DTD SVG 20010904//EN"
 "http://www.w3.org/TR/2001/REC-SVG-20010904/DTD/svg10.dtd">
<svg version="1.0" xmlns="http://www.w3.org/2000/svg"
 width="2048.000000pt" height="2048.000000pt" viewBox="0 0 2048.000000 2048.000000"
 preserveAspectRatio="xMidYMid meet">
<metadata>
Created by potrace 1.14, written by Peter Selinger 2001-2017
</metadata>
<g transform="translate(0.000000,2048.000000) scale(0.100000,-0.100000)"
fill="#000000" stroke="none">
<path d="M964 13665 c-4 -8 -10 -15 -15 -15 -6 0 -22 -13 -37 -28 -16 -16 -40
-32 -55 -36 -15 -3 -27 -13 -27 -20 0 -8 -7 -16 -15 -20 -9 -3 -15 -18 -15
-35 0 -16 -7 -36 -15 -45 -8 -8 -15 -23 -15 -33 -1 -10 -9 -36 -20 -58 -14
-30 -19 -62 -20 -128 0 -49 -5 -97 -10 -108 -6 -11 -13 -81 -16 -157 -3 -75
-10 -153 -16 -172 -5 -19 -13 -108 -17 -197 -4 -106 -11 -167 -19 -175 -8 -8
-12 -56 -12 -153 -1 -102 -5 -147 -15 -165 -10 -18 -15 -61 -15 -145 -1 -66
-6 -140 -11 -165 -6 -25 -17 -119 -25 -210 -7 -91 -18 -190 -23 -220 -5 -30
-10 -102 -10 -161 -1 -58 -5 -109 -11 -115 -5 -5 -14 -84 -19 -174 -5 -91 -14
-181 -20 -200 -6 -19 -11 -88 -11 -152 0 -80 -5 -132 -16 -163 -15 -45 -12
-85 7 -85 5 0 9 -15 9 -33 0 -18 7 -43 16 -55 13 -18 13 -26 3 -38 -9 -11 -9
-20 0 -40 6 -14 11 -44 11 -67 1 -23 7 -60 15 -82 8 -22 15 -54 15 -72 0 -18
6 -52 14 -75 8 -24 18 -68 21 -98 4 -30 13 -72 21 -93 8 -20 14 -64 14 -96 0
-37 5 -63 14 -70 7 -6 16 -41 19 -80 3 -38 10 -77 16 -88 5 -10 13 -48 16 -85
4 -38 10 -68 14 -68 5 0 11 -32 14 -71 3 -39 10 -76 15 -82 5 -7 13 -43 17
-82 4 -38 11 -75 17 -82 5 -7 12 -40 15 -73 5 -51 10 -64 34 -85 16 -13 29
-28 29 -34 0 -6 6 -11 14 -11 8 0 16 -7 20 -15 3 -8 16 -15 28 -15 13 -1 41
-9 63 -20 22 -11 45 -19 51 -20 7 0 25 -7 40 -15 25 -13 204 -15 1407 -15
1366 0 1378 0 1423 20 48 22 101 20 139 -6 15 -11 87 -14 343 -14 l324 0 30
31 c37 36 85 49 94 25 3 -9 10 -16 15 -16 20 0 109 -45 109 -54 0 -6 -7 -74
-15 -151 -9 -85 -15 -238 -15 -392 0 -221 2 -253 16 -261 14 -8 14 -12 3 -30
-10 -16 -10 -26 -2 -44 7 -13 14 -71 16 -130 2 -59 8 -113 14 -120 6 -7 13
-69 16 -136 3 -68 10 -129 15 -135 5 -7 12 -64 14 -128 5 -130 21 -172 74
-198 16 -8 41 -20 56 -28 21 -10 200 -13 950 -13 797 0 927 2 944 15 10 8 27
15 36 15 10 0 33 14 52 30 28 25 36 41 45 93 6 35 11 93 11 129 0 51 4 67 16
72 9 3 62 6 119 6 59 0 107 4 110 10 8 13 102 13 110 0 4 -6 57 -10 126 -10
l119 0 0 -99 c0 -75 4 -103 15 -115 8 -8 15 -23 15 -33 0 -22 56 -83 76 -83 9
0 22 -7 30 -15 13 -13 109 -15 739 -15 410 0 726 4 729 9 3 5 22 12 41 15 44
9 87 54 98 104 21 98 26 131 26 180 l1 52 109 0 c63 0 112 4 116 10 8 13 118
13 131 0 5 -5 59 -11 119 -12 l110 -3 3 -99 c2 -66 8 -106 17 -120 8 -11 15
-28 15 -37 0 -19 54 -69 75 -69 7 0 26 -7 41 -15 25 -13 129 -15 739 -15 610
0 714 2 739 15 15 8 34 15 41 15 21 0 65 45 65 66 0 11 6 26 13 32 7 8 14 54
17 120 l5 107 96 3 96 3 5 -135 c4 -133 5 -134 34 -160 16 -14 40 -29 54 -32
14 -4 34 -13 45 -20 29 -20 1867 -21 1887 -1 7 8 25 17 39 20 37 9 74 50 87
95 7 22 12 80 12 129 0 107 -6 103 137 103 79 0 101 4 147 26 92 43 111 87
121 281 3 76 13 166 21 201 8 35 14 99 14 143 0 44 5 90 11 101 6 12 14 71 17
130 3 73 9 114 18 123 20 19 19 216 -1 292 -8 31 -15 72 -15 90 l0 32 408 3
c313 2 413 6 424 16 23 19 83 18 103 -2 16 -15 55 -16 461 -14 308 2 447 6
452 14 4 6 23 14 42 18 57 11 122 47 167 94 35 36 43 51 43 82 0 24 5 40 15
44 12 4 15 25 15 99 0 51 7 119 15 150 8 32 15 87 15 122 0 36 6 82 14 102 8
21 17 76 21 122 4 47 13 118 21 159 8 41 14 98 14 129 0 30 5 64 11 75 6 11
14 56 16 100 4 55 9 76 16 69 6 -6 26 -11 43 -11 18 0 36 -4 39 -10 3 -5 26
-10 50 -10 75 0 78 -10 86 -297 4 -134 12 -250 17 -256 5 -7 12 -111 15 -232
7 -222 15 -275 52 -329 8 -11 15 -30 15 -41 1 -23 32 -65 49 -65 6 0 11 -6 11
-13 0 -14 27 -40 53 -50 9 -3 17 -11 17 -16 0 -5 14 -12 31 -16 17 -4 42 -13
57 -21 40 -20 1270 -20 1316 0 17 8 62 25 100 38 89 30 166 100 166 152 0 19
7 47 15 62 8 16 15 50 15 75 0 26 7 63 15 82 8 20 15 61 15 90 0 30 7 71 15
90 8 20 15 55 15 77 0 22 6 56 14 75 8 19 18 67 21 107 4 40 13 92 21 116 8
23 14 62 14 85 0 24 5 48 11 54 6 6 13 46 16 89 2 44 11 93 19 111 8 17 14 53
14 80 0 27 5 54 11 60 6 6 15 43 19 81 9 83 27 107 88 117 23 4 42 11 42 15 0
5 17 12 38 16 20 3 47 12 59 20 12 8 28 14 36 14 16 0 57 41 57 57 0 6 6 13
14 16 7 3 16 18 19 34 3 15 10 46 16 68 15 60 44 212 52 275 3 30 12 71 18 90
6 19 11 53 11 75 0 23 4 45 9 51 6 5 15 48 21 97 6 48 15 99 20 113 6 14 10
45 10 69 0 23 7 56 15 71 8 16 15 47 15 69 0 22 6 60 14 85 17 52 46 213 53
285 2 28 9 60 15 72 6 12 8 37 5 56 -3 19 -2 39 2 43 4 5 15 33 25 62 18 52
17 121 -3 147 -5 5 -11 84 -14 174 -3 97 -10 168 -16 174 -6 6 -11 53 -12 111
0 56 -5 126 -10 156 -6 30 -14 96 -17 146 -5 56 -13 98 -22 109 -12 14 -15 57
-17 193 -2 140 -6 179 -18 192 -8 9 -15 21 -15 27 0 6 -6 13 -14 16 -8 3 -16
15 -18 26 -4 29 -105 152 -145 179 -19 12 -46 22 -61 22 -15 0 -36 7 -46 15
-30 23 -1167 22 -1186 0 -7 -8 -27 -15 -46 -15 -18 0 -39 -7 -48 -15 -8 -8
-22 -15 -32 -15 -10 0 -26 -8 -36 -17 -29 -26 -69 -20 -108 15 -25 23 -44 32
-70 32 -19 0 -44 7 -54 15 -17 13 -113 15 -664 15 l-643 0 -32 -24 c-23 -18
-37 -22 -47 -16 -8 5 -29 10 -46 10 -17 0 -37 7 -44 15 -11 13 -194 15 -1540
15 l-1528 0 -38 -34 c-41 -37 -70 -39 -105 -10 -8 8 -28 14 -43 14 -15 0 -37
7 -50 15 -20 14 -69 15 -347 13 -247 -2 -323 -6 -327 -15 -5 -17 -32 -16 -56
2 -17 13 -163 15 -1078 15 -932 0 -1059 -2 -1064 -15 -4 -8 -13 -15 -20 -15
-8 0 -17 -7 -20 -15 -4 -8 -12 -15 -19 -15 -7 0 -18 7 -25 15 -7 8 -27 15 -44
15 -17 0 -40 7 -50 15 -17 13 -226 15 -1598 15 l-1577 0 -31 -30 c-34 -33 -54
-37 -76 -15 -9 8 -27 15 -42 15 -15 0 -36 7 -46 15 -17 13 -206 15 -1433 15
-1247 0 -1414 -2 -1419 -15 -4 -8 -12 -15 -18 -15 -7 0 -25 -13 -41 -30 -16
-16 -34 -30 -40 -30 -20 0 -54 -44 -61 -78 -4 -18 -10 -32 -15 -32 -4 0 -11
-17 -15 -37 -4 -21 -13 -44 -21 -51 -8 -9 -13 -40 -13 -90 -1 -42 -7 -104 -15
-137 -10 -40 -15 -116 -15 -227 0 -92 -5 -199 -12 -238 -9 -51 -9 -73 -1 -78
23 -15 25 -67 3 -94 -18 -23 -20 -41 -20 -150 0 -78 -6 -145 -15 -181 -10 -40
-15 -111 -16 -230 0 -95 -5 -194 -11 -222 -5 -27 -13 -98 -17 -157 -3 -58 -8
-109 -11 -111 -7 -7 -723 -12 -735 -5 -5 3 -23 9 -40 12 l-30 6 4 197 c3 166
1 198 -12 208 -11 8 -16 38 -18 121 -3 61 -9 117 -15 125 -7 8 -14 53 -16 101
-2 47 -9 92 -15 100 -6 7 -14 58 -18 113 -4 55 -12 106 -18 114 -6 7 -13 56
-15 110 -3 68 -8 98 -18 104 -10 6 -14 32 -14 101 0 66 -4 98 -15 112 -10 13
-14 45 -15 104 0 55 -5 95 -15 114 -9 18 -15 56 -15 103 0 70 -6 92 -42 153
-4 8 -14 28 -22 43 -13 30 -79 76 -107 77 -9 0 -19 7 -23 15 -3 8 -16 15 -29
15 -14 0 -30 7 -37 15 -7 8 -27 15 -44 15 -17 0 -40 7 -50 15 -30 23 -1244 22
-1252 0z m5776 -665 l0 -370 -764 0 c-600 0 -766 -3 -774 -13 -6 -6 -13 -50
-15 -97 -3 -47 -10 -112 -16 -145 -9 -52 -8 -62 6 -72 13 -10 184 -13 775 -13
l759 0 -5 -292 c-3 -161 -8 -335 -11 -385 l-6 -93 -767 0 c-465 0 -773 -4
-782 -10 -12 -8 -15 -38 -15 -167 l0 -158 779 -3 779 -2 -5 -173 c-3 -99 -10
-183 -17 -195 -7 -13 -11 -89 -11 -211 l0 -191 -1377 0 -1378 0 6 202 c3 127
10 211 17 225 8 14 14 109 17 275 4 139 9 260 12 268 3 8 11 125 19 260 7 135
18 283 23 330 5 47 10 155 10 240 1 85 8 214 16 285 8 72 15 191 15 266 0 87
4 139 11 146 8 8 13 85 17 220 2 114 9 216 14 226 8 16 82 17 1338 17 l1330 0
0 -370z m426 350 c13 -13 2918 -9 2952 4 l22 8 0 -366 0 -366 -930 0 -930 0
-17 -27 c-17 -25 -18 -73 -18 -718 l0 -690 461 -3 c458 -2 461 -2 480 19 17
19 19 41 22 265 l3 244 465 0 464 0 0 -655 0 -655 -1561 0 -1562 0 7 78 c4 42
11 129 16 192 5 63 10 300 10 525 1 226 5 446 11 490 5 44 13 271 19 505 5
234 14 457 19 495 5 39 13 204 17 368 6 267 9 297 23 297 10 0 22 -5 27 -10z
m-6001 -40 c4 -6 172 -10 470 -10 298 0 466 4 470 10 3 6 24 10 46 10 33 0 39
-3 39 -21 0 -11 -6 -27 -14 -34 -11 -11 -14 -59 -15 -217 -1 -111 -7 -223 -12
-248 -6 -25 -14 -124 -19 -220 -5 -96 -13 -206 -19 -245 -5 -38 -10 -130 -10
-203 -1 -73 -6 -142 -11 -153 -6 -11 -15 -101 -20 -202 -5 -100 -14 -216 -19
-257 -5 -41 -10 -132 -10 -201 -1 -107 2 -128 15 -133 9 -3 357 -6 775 -6
l759 0 0 -87 c0 -49 -5 -107 -10 -131 -6 -23 -14 -149 -19 -280 -5 -130 -12
-245 -16 -254 -7 -17 -81 -18 -1366 -18 l-1359 0 0 53 c0 29 7 79 15 110 9 35
15 103 15 170 0 62 5 130 11 152 6 22 15 101 20 175 5 74 13 158 19 185 6 28
14 109 17 180 3 72 11 136 17 144 6 8 13 97 18 215 4 110 11 235 17 276 5 41
10 112 10 158 1 46 6 92 12 103 5 11 13 77 16 147 2 70 11 159 19 199 8 40 14
116 14 170 0 62 6 114 16 142 8 25 17 98 21 175 4 102 9 134 21 144 19 14 58
16 67 2z m12033 -392 c6 -194 15 -398 21 -453 5 -55 9 -235 10 -400 1 -165 8
-397 16 -515 8 -122 16 -415 18 -677 l3 -463 -583 0 -583 0 0 385 c0 338 -2
389 -16 410 l-16 25 -192 0 c-192 0 -193 0 -216 -25 l-23 -24 4 -388 4 -388
-582 -3 -583 -2 0 1172 c0 645 3 1291 7 1436 l6 262 1347 0 1347 0 11 -352z
m3304 197 c2 -102 8 -159 16 -167 8 -8 12 -59 12 -165 l0 -153 -872 -2 -873
-3 3 -270 c2 -148 10 -328 18 -400 7 -71 14 -220 14 -330 0 -217 20 -422 42
-436 7 -5 407 -9 889 -9 l876 0 6 -127 c3 -71 11 -150 16 -178 5 -27 12 -143
14 -257 l5 -208 -1489 0 -1489 0 0 126 c0 74 -5 134 -11 146 -8 14 -14 184
-20 510 -5 289 -13 497 -19 508 -6 11 -10 176 -11 427 0 224 -5 449 -10 498
-5 50 -12 215 -15 368 l-6 277 1450 0 1450 0 4 -155z m1446 133 c7 -7 12 -33
12 -59 0 -27 6 -51 13 -58 10 -8 16 -58 21 -187 3 -97 12 -202 20 -233 8 -31
16 -132 19 -225 3 -92 9 -172 14 -177 4 -4 94 -11 198 -15 l190 -7 30 25 29
26 -13 78 c-8 44 -17 161 -20 261 -4 125 -10 186 -18 195 -10 9 -13 59 -13
180 l0 168 24 10 c13 5 27 14 31 19 10 17 1026 15 1047 -1 13 -10 17 -37 20
-134 2 -70 8 -127 14 -135 7 -8 15 -79 19 -164 4 -82 12 -159 18 -170 6 -11
14 -90 18 -176 4 -86 12 -165 18 -177 6 -11 11 -68 11 -126 l0 -106 -179 0
c-149 0 -181 -3 -191 -15 -13 -15 -9 -63 16 -227 l6 -37 -176 -3 c-220 -4
-214 0 -192 -120 9 -49 16 -141 17 -219 0 -74 5 -156 10 -184 5 -27 14 -127
19 -222 5 -95 14 -181 19 -192 6 -11 11 -57 11 -103 0 -83 12 -222 25 -291 l7
-37 -593 2 -594 3 -3 45 c-1 25 -7 54 -11 65 -5 11 -12 112 -15 223 -4 126
-11 212 -18 225 -7 13 -15 103 -20 217 -4 107 -12 218 -17 245 -6 28 -10 109
-10 182 -1 106 -4 135 -17 147 -13 14 -47 16 -218 16 l-203 0 -7 46 c-3 26 -6
81 -6 122 0 114 5 112 -215 112 l-183 0 -6 43 c-3 23 -6 115 -7 205 -1 106 -6
176 -15 200 -9 26 -13 104 -14 272 0 168 -4 240 -13 251 -17 23 -11 199 7 199
8 0 19 7 26 15 11 13 82 15 529 15 389 0 520 -3 529 -12z m-11021 -3688 c-4
-134 -3 -163 10 -175 12 -12 51 -15 209 -15 l195 0 -7 -132 c-3 -73 -9 -325
-13 -560 -5 -325 -10 -431 -19 -440 -9 -9 -67 -14 -200 -18 l-187 -5 -13 -28
c-8 -15 -18 -90 -23 -165 -5 -75 -12 -143 -14 -150 -4 -10 -181 -12 -862 -10
l-858 3 0 165 c-1 91 3 217 7 280 4 63 13 315 19 560 9 363 21 737 28 833 1
16 49 17 867 17 l867 0 -6 -160z m2381 -4 c1 -97 7 -165 13 -173 9 -10 58 -13
211 -13 l200 0 -6 -182 c-3 -101 -8 -352 -12 -558 -3 -206 -8 -383 -10 -392
-5 -16 -23 -18 -189 -18 -241 0 -224 14 -227 -195 l-3 -160 -655 0 -655 0 -3
168 -2 168 -26 9 c-14 6 -106 10 -204 10 l-178 0 -7 27 c-7 31 2 1003 11 1076
l6 47 193 0 c239 0 225 -11 225 166 0 67 3 136 6 153 l7 31 651 -2 651 -3 3
-159z m2372 14 c0 -122 3 -155 16 -175 l16 -25 194 0 193 0 5 -42 c3 -24 7
-112 10 -196 8 -209 29 -193 -262 -190 l-227 3 -3 160 c-2 149 -4 161 -23 178
-20 16 -62 17 -568 17 -450 0 -551 -2 -566 -14 -18 -13 -19 -36 -21 -490 -2
-414 -1 -478 12 -491 14 -13 88 -15 592 -13 l577 3 -1 173 -2 172 249 0 249 0
0 -197 c0 -109 -4 -203 -8 -210 -5 -8 -64 -13 -193 -15 -139 -2 -190 -6 -202
-17 -15 -11 -17 -37 -17 -177 l0 -164 -654 0 -653 0 -6 166 c-3 104 -9 170
-16 178 -8 7 -79 13 -203 16 l-192 5 -7 30 c-4 17 -9 274 -12 573 l-5 542 199
0 198 0 16 30 c11 22 15 64 15 175 l0 145 650 0 650 0 0 -150z m2803 -46 c5
-140 4 -201 -4 -210 -9 -12 -151 -14 -808 -14 -692 0 -799 -2 -818 -15 -20
-14 -21 -21 -16 -132 5 -93 9 -120 22 -128 10 -6 244 -12 621 -15 l605 -5 6
-162 c4 -108 10 -167 19 -177 10 -13 47 -16 204 -18 l191 -3 2 -40 c1 -22 7
-108 14 -191 9 -114 9 -156 0 -172 -11 -21 -17 -22 -195 -22 -154 0 -186 -2
-197 -16 -9 -11 -13 -60 -13 -177 l-1 -162 -865 0 -865 0 -6 60 c-4 33 -10
129 -14 213 l-8 152 831 0 c965 0 856 -17 847 133 -8 115 -11 132 -31 151 -14
14 -84 16 -625 16 l-609 0 0 164 c0 140 -2 166 -17 177 -12 11 -63 15 -204 17
-185 3 -189 4 -193 25 -3 12 -8 106 -11 210 l-6 187 188 0 c103 0 193 4 199 8
17 11 34 49 30 64 -2 7 -7 73 -10 146 l-6 132 868 0 869 0 6 -196z"/>
<path d="M11190 12875 c-10 -12 -12 -48 -7 -145 3 -71 8 -134 12 -140 4 -6 77
-10 195 -10 177 0 190 1 200 19 15 28 13 264 -2 279 -8 8 -67 12 -199 12 -155
0 -189 -3 -199 -15z"/>
<path d="M12100 12880 c-12 -8 -14 -33 -12 -142 2 -73 8 -139 14 -145 16 -20
381 -18 398 2 15 18 14 263 -1 282 -9 10 -55 13 -198 13 -102 0 -193 -5 -201
-10z"/>
<path d="M11647 12534 c-4 -4 -7 -40 -7 -81 l0 -73 -84 0 c-47 0 -96 -4 -110
-10 l-26 -10 0 -249 c0 -285 -4 -272 91 -279 89 -7 107 9 111 95 l3 68 230 0
230 0 6 -63 c8 -83 26 -102 95 -102 29 0 65 5 79 12 l25 11 0 242 c0 192 -3
245 -14 261 -12 16 -29 20 -110 22 l-95 4 -3 76 -3 77 -206 3 c-113 1 -208 -1
-212 -4z"/>
<path d="M5694 9289 c-17 -19 -20 -46 -26 -303 -4 -154 -12 -334 -18 -398 -14
-157 -13 -271 2 -286 9 -9 153 -12 589 -12 l576 0 7 143 c3 78 9 303 12 499
l6 358 -27 10 c-16 6 -223 10 -564 10 -534 0 -538 0 -557 -21z"/>
<path d="M8083 9288 c-22 -23 -22 -28 -25 -508 l-3 -485 570 -3 570 -2 18 21
c16 20 17 58 17 493 0 279 -4 477 -10 486 -8 13 -84 15 -563 18 l-553 3 -21
-23z"/>
</g>
</svg>
